<svg width="80" height="51" viewBox="0 0 80 51" fill="none" xmlns="http://www.w3.org/2000/svg">
<g id="Union">
<path fill-rule="evenodd" clip-rule="evenodd" d="M42.0775 41.3429C45.2345 37.4007 47.1224 32.3998 47.1224 26.9582C47.1224 14.2326 36.7975 3.91647 24.0612 3.91647C16.1655 3.91647 9.19663 7.88113 5.03986 13.9267L5.03986 3.01823C5.03986 1.90359 4.13551 0.999996 3.01993 0.999996C1.90435 0.999996 1 1.90359 1 3.01823V26.9582V27.0798C1 27.0969 1.00021 27.1139 1.00063 27.1309C1.09353 39.777 11.3825 50 24.0612 50C29.8263 50 35.0972 47.8863 39.1402 44.3923C39.2455 44.5256 39.3685 44.6485 39.5088 44.7574C46.9818 50.5583 57.489 51.7282 66.3144 46.883C78.1558 40.382 82.4776 25.5176 75.9674 13.6823C69.9225 2.69304 56.6671 -1.81922 45.322 2.79395C44.2284 3.23863 43.703 4.48513 44.1484 5.57809C44.1799 5.65536 44.2154 5.72979 44.2546 5.80124C44.2711 5.85405 44.2899 5.9066 44.3112 5.95879L53.3347 28.1467C53.7498 29.1674 54.9141 29.6588 55.9352 29.2444C56.9563 28.8299 57.4476 27.6664 57.0325 26.6458L48.6895 6.13124C57.6252 3.4284 67.5418 7.23448 72.2202 15.7395C77.5927 25.5064 74.0262 37.773 64.2542 43.1378C56.9766 47.1333 48.3051 46.1758 42.1312 41.3833C42.1135 41.3695 42.0956 41.3561 42.0775 41.3429ZM5.03986 26.954L5.03986 26.9582L5.03986 26.9625C5.04218 37.4569 13.5574 45.9635 24.0612 45.9635C34.5664 45.9635 43.0825 37.4546 43.0825 26.9582C43.0825 16.4619 34.5664 7.95293 24.0612 7.95293C13.5574 7.95293 5.04218 16.4596 5.03986 26.954Z" fill="#CDA580"/>
<path d="M42.0775 41.3429L41.8824 41.1867L41.7188 41.391L41.9304 41.545L42.0775 41.3429ZM5.03986 13.9267H4.78986V14.7315L5.24587 14.0683L5.03986 13.9267ZM5.03986 3.01823H4.78986H5.03986ZM1.00063 27.1309L1.25067 27.1291L1.25056 27.1247L1.00063 27.1309ZM39.1402 44.3923L39.3364 44.2374L39.1745 44.0322L38.9767 44.2031L39.1402 44.3923ZM39.5088 44.7574L39.3555 44.9549L39.5088 44.7574ZM66.3144 46.883L66.194 46.6639L66.3144 46.883ZM75.9674 13.6823L75.7483 13.8028L75.9674 13.6823ZM45.322 2.79395L45.2278 2.56237L45.322 2.79395ZM44.1484 5.57809L43.9169 5.67244L43.9169 5.67244L44.1484 5.57809ZM44.2546 5.80124L44.4931 5.72654L44.4857 5.70284L44.4738 5.68106L44.2546 5.80124ZM44.3112 5.95879L44.5427 5.86461L44.5427 5.8646L44.3112 5.95879ZM53.3347 28.1467L53.5663 28.0525L53.3347 28.1467ZM57.0325 26.6458L56.8009 26.7399L57.0325 26.6458ZM48.6895 6.13124L48.6171 5.89195L48.3546 5.97136L48.4579 6.22542L48.6895 6.13124ZM72.2202 15.7395L72.0012 15.86L72.2202 15.7395ZM64.2542 43.1378L64.1339 42.9187L64.2542 43.1378ZM42.1312 41.3833L41.9779 41.5808H41.9779L42.1312 41.3833ZM5.03986 26.9582L4.78986 26.9582V26.9583L5.03986 26.9582ZM5.03986 26.954L4.78986 26.9539V26.9539L5.03986 26.954ZM5.03986 26.9625L4.78986 26.9625V26.9626L5.03986 26.9625ZM46.8724 26.9582C46.8724 32.3409 45.0052 37.2872 41.8824 41.1867L42.2727 41.4992C45.4639 37.5143 47.3724 32.4586 47.3724 26.9582H46.8724ZM24.0612 4.16647C36.6597 4.16647 46.8724 14.3709 46.8724 26.9582H47.3724C47.3724 14.0943 36.9354 3.66647 24.0612 3.66647V4.16647ZM5.24587 14.0683C9.35795 8.08775 16.2512 4.16647 24.0612 4.16647V3.66647C16.0798 3.66647 9.0353 7.67451 4.83386 13.785L5.24587 14.0683ZM4.78986 3.01823L4.78986 13.9267H5.28986L5.28986 3.01823L4.78986 3.01823ZM3.01993 1.25C3.99764 1.25 4.78986 2.04186 4.78986 3.01823H5.28986C5.28986 1.76532 4.27338 0.749996 3.01993 0.749996V1.25ZM1.25 3.01823C1.25 2.04186 2.04223 1.25 3.01993 1.25V0.749996C1.76648 0.749996 0.75 1.76532 0.75 3.01823H1.25ZM1.25 26.9582V3.01823H0.75V26.9582H1.25ZM1.25 27.0798V26.9582H0.75V27.0798H1.25ZM1.25056 27.1247C1.25019 27.1098 1.25 27.0948 1.25 27.0798H0.75C0.75 27.099 0.750238 27.1181 0.750711 27.1371L1.25056 27.1247ZM24.0612 49.75C11.5198 49.75 1.34252 39.6378 1.25063 27.1291L0.750641 27.1327C0.844548 39.9163 11.2452 50.25 24.0612 50.25V49.75ZM38.9767 44.2031C34.9775 47.6594 29.764 49.75 24.0612 49.75V50.25C29.8885 50.25 35.217 48.1133 39.3037 44.5814L38.9767 44.2031ZM38.944 44.5472C39.0617 44.6963 39.1991 44.8335 39.3555 44.9549L39.662 44.5599C39.5379 44.4635 39.4293 44.355 39.3364 44.2374L38.944 44.5472ZM39.3555 44.9549C46.9043 50.8147 57.5188 51.997 66.4347 47.1022L66.194 46.6639C57.4592 51.4594 47.0592 50.302 39.662 44.5599L39.3555 44.9549ZM66.4347 47.1022C78.3972 40.5347 82.7633 25.5181 76.1864 13.5618L75.7483 13.8028C82.192 25.517 77.9144 40.2294 66.194 46.6639L66.4347 47.1022ZM76.1864 13.5618C70.0797 2.46009 56.689 -2.09799 45.2278 2.56237L45.4162 3.02554C56.6452 -1.54045 69.7653 2.92599 75.7483 13.8028L76.1864 13.5618ZM45.2278 2.56237C44.0063 3.05906 43.4193 4.45149 43.9169 5.67244L44.3799 5.48374C43.9867 4.51877 44.4505 3.4182 45.4162 3.02554L45.2278 2.56237ZM43.9169 5.67244C43.952 5.75856 43.9916 5.84161 44.0353 5.92141L44.4738 5.68106C44.4392 5.61796 44.4078 5.55215 44.3799 5.48374L43.9169 5.67244ZM44.016 5.87594C44.0346 5.93533 44.0558 5.99438 44.0796 6.05297L44.5427 5.8646C44.5241 5.81882 44.5076 5.77278 44.4931 5.72654L44.016 5.87594ZM44.0796 6.05297L53.1031 28.2409L53.5663 28.0525L44.5427 5.86461L44.0796 6.05297ZM53.1031 28.2409C53.5702 29.3895 54.8803 29.9424 56.0292 29.476L55.8412 29.0127C54.9479 29.3753 53.9294 28.9454 53.5663 28.0525L53.1031 28.2409ZM56.0292 29.476C57.1783 29.0096 57.7312 27.7003 57.2641 26.5516L56.8009 26.7399C57.164 27.6326 56.7343 28.6502 55.8412 29.0127L56.0292 29.476ZM57.2641 26.5516L48.9211 6.03706L48.4579 6.22542L56.8009 26.7399L57.2641 26.5516ZM48.7619 6.37053C57.5869 3.70117 67.3809 7.46054 72.0012 15.86L72.4393 15.619C67.7028 7.00842 57.6635 3.15563 48.6171 5.89195L48.7619 6.37053ZM72.0012 15.86C77.3071 25.5058 73.7848 37.6203 64.1339 42.9187L64.3745 43.357C74.2676 37.9257 77.8783 25.5069 72.4393 15.619L72.0012 15.86ZM64.1339 42.9187C56.9467 46.8645 48.3825 45.9194 42.2845 41.1858L41.9779 41.5808C48.2278 46.4322 57.0064 47.4021 64.3745 43.357L64.1339 42.9187ZM42.2845 41.1858C42.2647 41.1704 42.2448 41.1555 42.2247 41.1408L41.9304 41.545C41.9464 41.5567 41.9622 41.5686 41.9779 41.5808L42.2845 41.1858ZM5.28986 26.9583L5.28986 26.954L4.78986 26.9539L4.78986 26.9582L5.28986 26.9583ZM5.28986 26.9625L5.28986 26.9582L4.78986 26.9583L4.78986 26.9625L5.28986 26.9625ZM24.0612 45.7135C13.6953 45.7135 5.29215 37.3186 5.28986 26.9625L4.78986 26.9626C4.79221 37.5952 13.4196 46.2135 24.0612 46.2135V45.7135ZM42.8325 26.9582C42.8325 37.3163 34.4285 45.7135 24.0612 45.7135V46.2135C34.7043 46.2135 43.3325 37.5928 43.3325 26.9582H42.8325ZM24.0612 8.20293C34.4285 8.20293 42.8325 16.6002 42.8325 26.9582H43.3325C43.3325 16.3236 34.7043 7.70293 24.0612 7.70293V8.20293ZM5.28986 26.954C5.29215 16.5979 13.6953 8.20293 24.0612 8.20293V7.70293C13.4196 7.70293 4.79221 16.3213 4.78986 26.9539L5.28986 26.954Z" fill="#CDA580"/>
</g>
</svg>
