<svg width="49" height="32" viewBox="0 0 49 32" fill="none" xmlns="http://www.w3.org/2000/svg">
<g id="Union">
<path fill-rule="evenodd" clip-rule="evenodd" d="M3.4713 2.23565C3.4713 1.55322 2.91808 1 2.23565 1C1.55322 1 1 1.55322 1 2.23565V16.8928V16.9673C1 16.9777 1.00013 16.9881 1.00039 16.9985C1.05722 24.741 7.35128 31 15.1072 31C18.6328 31 21.8563 29.7067 24.3292 27.5687C24.3935 27.65 24.4685 27.725 24.5541 27.7915C29.1251 31.342 35.5529 32.057 40.9526 29.0897C48.1975 25.1083 50.8432 16.0076 46.8618 8.76266C43.165 2.03558 35.0564 -0.725351 28.1153 2.10021C27.4462 2.37257 27.1246 3.13576 27.397 3.80483C27.4153 3.8499 27.4359 3.8934 27.4585 3.93524C27.469 3.96917 27.481 4.00293 27.4946 4.03643L33.0138 17.6205C33.2677 18.2454 33.9801 18.5461 34.605 18.2922C35.2299 18.0383 35.5307 17.3259 35.2768 16.7011L30.1745 4.14311C35.6415 2.48705 41.708 4.81602 44.5692 10.0225C47.8547 16.0013 45.6715 23.5115 39.6927 26.7971C35.24 29.244 29.9352 28.6588 26.1588 25.7255C26.1483 25.7173 26.1376 25.7093 26.1269 25.7015C28.059 23.2876 29.2144 20.2251 29.2144 16.8928C29.2144 9.10161 22.8984 2.7856 15.1072 2.7856C10.2772 2.7856 6.01412 5.21294 3.4713 8.9143L3.4713 2.23565ZM3.4713 16.8894L3.4713 16.8928L3.4713 16.8962C3.47312 23.3209 8.68199 28.5287 15.1072 28.5287C21.5335 28.5287 26.7431 23.3191 26.7431 16.8928C26.7431 10.4665 21.5335 5.2569 15.1072 5.2569C8.68199 5.2569 3.47312 10.4647 3.4713 16.8894Z" fill="#CDA580"/>
<path d="M3.4713 2.23565H3.7213V2.23565L3.4713 2.23565ZM1.00039 16.9985L1.25042 16.9967L1.25031 16.9923L1.00039 16.9985ZM24.3292 27.5687L24.5254 27.4137L24.3634 27.2086L24.1657 27.3796L24.3292 27.5687ZM24.5541 27.7915L24.7074 27.594L24.5541 27.7915ZM40.9526 29.0897L40.8322 28.8706L40.9526 29.0897ZM46.8618 8.76266L47.0809 8.64225L46.8618 8.76266ZM28.1153 2.10021L28.021 1.86866V1.86866L28.1153 2.10021ZM27.397 3.80483L27.1654 3.89909L27.1654 3.89909L27.397 3.80483ZM27.4585 3.93524L27.6974 3.86158L27.6902 3.83803L27.6785 3.81634L27.4585 3.93524ZM27.4946 4.03643L27.7262 3.94233L27.7262 3.94233L27.4946 4.03643ZM33.0138 17.6205L33.2454 17.5264V17.5264L33.0138 17.6205ZM34.605 18.2922L34.6991 18.5239L34.605 18.2922ZM35.2768 16.7011L35.0452 16.7952V16.7952L35.2768 16.7011ZM30.1745 4.14311L30.102 3.90384L29.8397 3.9833L29.9429 4.23721L30.1745 4.14311ZM44.5692 10.0225L44.7883 9.90213V9.90213L44.5692 10.0225ZM39.6927 26.7971L39.5723 26.578L39.6927 26.7971ZM26.1588 25.7255L26.0054 25.9229L26.0054 25.9229L26.1588 25.7255ZM26.1269 25.7015L25.9318 25.5453L25.7684 25.7493L25.9796 25.9034L26.1269 25.7015ZM3.4713 8.9143H3.2213V9.71971L3.67736 9.05586L3.4713 8.9143ZM3.4713 16.8928L3.2213 16.8928V16.8928L3.4713 16.8928ZM3.4713 16.8894L3.2213 16.8894V16.8894L3.4713 16.8894ZM3.4713 16.8962L3.2213 16.8962V16.8962L3.4713 16.8962ZM2.23565 1.25C2.78001 1.25 3.2213 1.69129 3.2213 2.23565L3.7213 2.23565C3.7213 1.41515 3.05615 0.75 2.23565 0.75V1.25ZM1.25 2.23565C1.25 1.69129 1.69129 1.25 2.23565 1.25V0.75C1.41515 0.75 0.75 1.41515 0.75 2.23565H1.25ZM1.25 16.8928V2.23565H0.75V16.8928H1.25ZM1.25 16.9673V16.8928H0.75V16.9673H1.25ZM1.25031 16.9923C1.2501 16.984 1.25 16.9756 1.25 16.9673H0.75C0.75 16.9798 0.750156 16.9923 0.750465 17.0047L1.25031 16.9923ZM15.1072 30.75C7.48874 30.75 1.3062 24.602 1.25038 16.9967L0.750395 17.0004C0.808231 24.8801 7.21383 31.25 15.1072 31.25V30.75ZM24.1657 27.3796C21.7365 29.4798 18.5705 30.75 15.1072 30.75V31.25C18.6951 31.25 21.9761 29.9336 24.4927 27.7578L24.1657 27.3796ZM24.133 27.7236C24.2097 27.8207 24.2991 27.91 24.4007 27.9889L24.7074 27.594C24.6379 27.54 24.5773 27.4794 24.5254 27.4137L24.133 27.7236ZM24.4007 27.9889C29.0477 31.5984 35.5828 32.3258 41.073 29.3088L40.8322 28.8706C35.5231 31.7881 29.2026 31.0856 24.7074 27.594L24.4007 27.9889ZM41.073 29.3088C48.4389 25.2609 51.1288 16.0082 47.0809 8.64225L46.6427 8.88306C50.5576 16.007 47.9561 24.9557 40.8322 28.8706L41.073 29.3088ZM47.0809 8.64225C43.3223 1.80265 35.0782 -1.00417 28.021 1.86866L28.2096 2.33176C35.0345 -0.446531 43.0078 2.2685 46.6427 8.88306L47.0809 8.64225ZM28.021 1.86866C27.2241 2.19308 26.841 3.10214 27.1654 3.89909L27.6285 3.71057C27.4082 3.16938 27.6684 2.55206 28.2096 2.33176L28.021 1.86866ZM27.1654 3.89909C27.1872 3.9526 27.2117 4.00432 27.2386 4.05414L27.6785 3.81634C27.6601 3.78248 27.6435 3.74721 27.6285 3.71057L27.1654 3.89909ZM27.2196 4.00889C27.2322 4.04974 27.2467 4.09032 27.263 4.13054L27.7262 3.94233C27.7154 3.91553 27.7058 3.8886 27.6974 3.86158L27.2196 4.00889ZM27.263 4.13054L32.7822 17.7146L33.2454 17.5264L27.7262 3.94233L27.263 4.13054ZM32.7822 17.7146C33.0881 18.4674 33.9463 18.8297 34.6991 18.5239L34.5109 18.0606C34.0139 18.2625 33.4474 18.0234 33.2454 17.5264L32.7822 17.7146ZM34.6991 18.5239C35.4519 18.218 35.8142 17.3598 35.5084 16.6069L35.0452 16.7952C35.2471 17.2921 35.0079 17.8587 34.5109 18.0606L34.6991 18.5239ZM35.5084 16.6069L30.4061 4.049L29.9429 4.23721L35.0452 16.7952L35.5084 16.6069ZM30.247 4.38237C35.6032 2.75986 41.5469 5.04205 44.3501 10.1429L44.7883 9.90213C41.8691 4.58999 35.6798 2.21423 30.102 3.90384L30.247 4.38237ZM44.3501 10.1429C47.5691 16.0007 45.43 23.3589 39.5723 26.578L39.8131 27.0162C45.9129 23.6641 48.1403 16.0019 44.7883 9.90213L44.3501 10.1429ZM39.5723 26.578C35.21 28.9752 30.0126 28.4024 26.3122 25.528L26.0054 25.9229C29.8579 28.9153 35.2699 29.5128 39.8131 27.0162L39.5723 26.578ZM26.3122 25.5281C26.2996 25.5183 26.287 25.5088 26.2743 25.4996L25.9796 25.9034C25.9883 25.9098 25.9969 25.9163 26.0054 25.9229L26.3122 25.5281ZM28.9644 16.8928C28.9644 20.1663 27.8296 23.1741 25.9318 25.5453L26.3221 25.8577C28.2884 23.4011 29.4644 20.284 29.4644 16.8928H28.9644ZM15.1072 3.0356C22.7603 3.0356 28.9644 9.23968 28.9644 16.8928H29.4644C29.4644 8.96353 23.0365 2.5356 15.1072 2.5356V3.0356ZM3.67736 9.05586C6.17554 5.41948 10.363 3.0356 15.1072 3.0356V2.5356C10.1914 2.5356 5.85269 5.0064 3.26524 8.77274L3.67736 9.05586ZM3.2213 2.23565L3.2213 8.9143H3.7213L3.7213 2.23565H3.2213ZM3.7213 16.8928L3.7213 16.8895L3.2213 16.8894L3.2213 16.8928L3.7213 16.8928ZM3.7213 16.8961L3.7213 16.8928L3.2213 16.8928L3.2213 16.8962L3.7213 16.8961ZM15.1072 28.2787C8.82004 28.2787 3.72308 23.1828 3.7213 16.8961L3.2213 16.8962C3.22316 23.4591 8.54394 28.7787 15.1072 28.7787V28.2787ZM26.4931 16.8928C26.4931 23.1811 21.3955 28.2787 15.1072 28.2787V28.7787C21.6716 28.7787 26.9931 23.4572 26.9931 16.8928H26.4931ZM15.1072 5.5069C21.3955 5.5069 26.4931 10.6045 26.4931 16.8928H26.9931C26.9931 10.3284 21.6716 5.0069 15.1072 5.0069V5.5069ZM3.7213 16.8895C3.72308 10.6028 8.82004 5.5069 15.1072 5.5069V5.0069C8.54394 5.0069 3.22316 10.3265 3.2213 16.8894L3.7213 16.8895Z" fill="#CDA580"/>
</g>
</svg>
