<svg width="32" height="15" viewBox="0 0 32 15" fill="none" xmlns="http://www.w3.org/2000/svg">
<path d="M0.292893 6.79289C-0.0976311 7.18342 -0.0976311 7.81658 0.292893 8.20711L6.65685 14.5711C7.04738 14.9616 7.68054 14.9616 8.07107 14.5711C8.46159 14.1805 8.46159 13.5474 8.07107 13.1569L2.41421 7.5L8.07107 1.84315C8.46159 1.45262 8.46159 0.819456 8.07107 0.428932C7.68054 0.0384072 7.04738 0.0384073 6.65685 0.428932L0.292893 6.79289ZM31 8.5C31.5523 8.5 32 8.05228 32 7.5C32 6.94771 31.5523 6.5 31 6.5L31 8.5ZM1 8.5L31 8.5L31 6.5L1 6.5L1 8.5Z" fill="#232326"/>
</svg>
